<!-- github.svg -->
<svg xmlns="http://www.w3.org/2000/svg" fill="white" viewBox="0 0 24 24">
  <path d="M12 .5C5.37.5 0 5.87 0 12.5c0 5.29 3.438 9.775 8.207 11.366.6.11.793-.26.793-.577v-2.234c-3.338.726-4.033-1.416-4.033-1.416-.546-1.384-1.334-1.754-1.334-1.754-1.09-.745.082-.729.082-.729 1.204.084 1.837 1.234 1.837 1.234 1.07 1.832 2.81 1.303 3.495.997.107-.775.418-1.303.762-1.602-2.665-.304-5.466-1.332-5.466-5.931 0-1.31.469-2.38 1.235-3.22-.123-.304-.535-1.523.117-3.176 0 0 1.008-.322 3.3 1.23a11.5 11.5 0 0 1 6 0c2.292-1.552 3.298-1.23 3.298-1.23.653 1.653.241 2.872.119 3.176.77.84 1.233 1.91 1.233 3.22 0 4.61-2.804 5.625-5.475 5.922.43.37.823 1.103.823 2.222v3.293c0 .32.192.694.8.576C20.565 22.272 24 17.79 24 12.5 24 5.87 18.63.5 12 .5z"></path>
</svg>
